<svg xmlns="http://www.w3.org/2000/svg" width="26.406" height="26.406" viewBox="0 0 26.406 26.406">
  <path id="fb" d="M26.406,1.474A1.477,1.477,0,0,0,25.934.412a1.67,1.67,0,0,0-1-.412H1.474A1.462,1.462,0,0,0,.414.412,1.421,1.421,0,0,0,0,1.474V24.933a1.416,1.416,0,0,0,.414,1.06,1.259,1.259,0,0,0,1.06.414H14.088V16.15H10.669V12.2h3.418V9.254A5.257,5.257,0,0,1,15.5,5.364a5.227,5.227,0,0,1,3.713-1.357c1.18,0,2.24.06,3.066.118v3.6H20.158a1.984,1.984,0,0,0-1.591.531,2.27,2.27,0,0,0-.354,1.415V12.2h3.949l-.531,3.95H18.213V26.406h6.719a1.421,1.421,0,0,0,1.061-.414,1.693,1.693,0,0,0,.412-1.06Z" fill="#fff"/>
</svg>
