<svg xmlns="http://www.w3.org/2000/svg" width="26.405" height="26.406" viewBox="0 0 26.405 26.406">
  <path id="ig" d="M13.2,26.406c-2.566,0-4.421,0-5.541-.06a8.313,8.313,0,0,1-2.888-.589,6.13,6.13,0,0,1-2.593-1.532A6.855,6.855,0,0,1,.589,21.631a10.069,10.069,0,0,1-.53-2.888C0,17.623,0,15.769,0,13.2c0-2.532,0-4.362.059-5.482a10.494,10.494,0,0,1,.53-2.946A7.141,7.141,0,0,1,2.181,2.24,7,7,0,0,1,4.774.589,12.941,12.941,0,0,1,7.662.119C8.677.064,10.463,0,13.2,0c2.841,0,4.654.074,5.481.119a13.494,13.494,0,0,1,2.947.47,7.319,7.319,0,0,1,4.185,4.186,17.594,17.594,0,0,1,.53,2.946c0,.432.009.977.019,1.609v.15c.016,1,.037,2.24.037,3.724,0,2.739-.064,4.524-.117,5.54a12.83,12.83,0,0,1-.472,2.888,7,7,0,0,1-1.651,2.594,7.138,7.138,0,0,1-2.534,1.591,10.5,10.5,0,0,1-2.947.53C17.564,26.406,15.735,26.406,13.2,26.406ZM12.26,2.358c-.925,0-1.746.02-2.406.036-.485.012-.9.022-1.249.022a14.006,14.006,0,0,0-3.183.47A4.311,4.311,0,0,0,2.888,5.423a11.412,11.412,0,0,0-.472,3.183c-.059.885-.059,2.107-.059,3.655v1.887c0,1.58,0,2.829.059,3.653a11.4,11.4,0,0,0,.472,3.183,4.309,4.309,0,0,0,2.534,2.535,11.5,11.5,0,0,0,3.183.472c.825.059,2.074.059,3.655.059h1.887c1.58,0,2.829,0,3.653-.059a11.487,11.487,0,0,0,3.183-.472,4.456,4.456,0,0,0,2.535-2.535A13.91,13.91,0,0,0,23.99,17.8c0-.345.01-.762.022-1.246.016-.663.036-1.483.036-2.407V12.26c0-.926-.02-1.746-.036-2.405-.012-.485-.022-.9-.022-1.249a13.924,13.924,0,0,0-.472-3.183,4.458,4.458,0,0,0-2.535-2.535,13.99,13.99,0,0,0-3.183-.47c-.382,0-.824-.011-1.337-.023-.677-.017-1.445-.035-2.316-.035ZM13.2,19.981A6.862,6.862,0,0,1,9.784,19.1a6.263,6.263,0,0,1-2.475-2.474,6.935,6.935,0,0,1,0-6.779A6.291,6.291,0,0,1,9.784,7.366,6.9,6.9,0,0,1,13.2,6.424a6.909,6.909,0,0,1,3.359.942,6.291,6.291,0,0,1,2.475,2.477,6.9,6.9,0,0,1,.943,3.36,6.915,6.915,0,0,1-.943,3.419A6.263,6.263,0,0,1,16.562,19.1,6.854,6.854,0,0,1,13.2,19.981Zm0-11.2a4.329,4.329,0,0,0-3.124,1.3,4.277,4.277,0,0,0-1.3,3.124,4.093,4.093,0,0,0,1.3,3.123,4.094,4.094,0,0,0,3.124,1.3,4.271,4.271,0,0,0,3.123-1.3,4.328,4.328,0,0,0,1.3-3.123A4.428,4.428,0,0,0,13.2,8.783Zm7.073-1.062a1.316,1.316,0,0,1-1.12-.47,1.319,1.319,0,0,1-.472-1.12,1.479,1.479,0,0,1,.472-1.119,1.514,1.514,0,0,1,1.12-.473,1.724,1.724,0,0,1,1.119.473,1.718,1.718,0,0,1,.472,1.119,1.834,1.834,0,0,1-.53,1.12A1.284,1.284,0,0,1,20.276,7.721Z" fill="#fff"/>
</svg>
