<svg xmlns="http://www.w3.org/2000/svg" width="29.769" height="29.769" viewBox="0 0 29.769 29.769">
  <path id="spo-verde" d="M15.138.277A14.884,14.884,0,1,0,30.022,15.161,14.885,14.885,0,0,0,15.138.277h0Zm6.826,21.468a.927.927,0,0,1-1.276.307c-3.495-2.135-7.894-2.618-13.075-1.434A.928.928,0,1,1,7.2,18.808c5.67-1.3,10.533-.738,14.457,1.66A.928.928,0,0,1,21.964,21.745Zm1.822-4.053a1.161,1.161,0,0,1-1.6.382A19.536,19.536,0,0,0,7.357,16.339a1.16,1.16,0,1,1-.674-2.221A21.715,21.715,0,0,1,23.4,16.1a1.16,1.16,0,0,1,.382,1.6Zm.156-4.22C19.145,10.622,11.23,10.36,6.65,11.75a1.392,1.392,0,1,1-.808-2.664c5.258-1.6,14-1.288,19.521,1.991a1.392,1.392,0,1,1-1.42,2.395Z" transform="translate(-0.253 -0.277)" fill="#25ee9b"/>
</svg>
