<svg xmlns="http://www.w3.org/2000/svg" width="27.485" height="27.485" viewBox="0 0 27.485 27.485">
  <path id="spotify-logo" d="M14,.277A13.742,13.742,0,1,0,27.738,14.019,13.743,13.743,0,0,0,14,.277h0ZM20.3,20.1a.856.856,0,0,1-1.178.284c-3.227-1.971-7.289-2.417-12.072-1.324a.857.857,0,1,1-.381-1.671c5.235-1.2,9.725-.681,13.348,1.533A.857.857,0,0,1,20.3,20.1Zm1.682-3.742a1.071,1.071,0,0,1-1.474.353,18.037,18.037,0,0,0-13.694-1.6,1.071,1.071,0,1,1-.623-2.05,20.049,20.049,0,0,1,15.438,1.826,1.071,1.071,0,0,1,.353,1.473Zm.144-3.9C17.7,9.828,10.388,9.586,6.159,10.87a1.285,1.285,0,1,1-.746-2.46c4.854-1.474,12.924-1.189,18.024,1.838a1.285,1.285,0,1,1-1.311,2.211Z" transform="translate(-0.253 -0.277)" fill="#fff"/>
</svg>
