<svg id="twitter_1_" data-name="twitter (1)" xmlns="http://www.w3.org/2000/svg" width="31.625" height="24.736" viewBox="0 0 31.625 24.736">
  <path id="Trazado_4" data-name="Trazado 4" d="M21.131.005V0h1.483l.542.1a5.971,5.971,0,0,1,.984.266,7.127,7.127,0,0,1,.855.384,8.194,8.194,0,0,1,.75.447,4.582,4.582,0,0,1,.6.478.855.855,0,0,0,.818.132,11.269,11.269,0,0,0,1.2-.343Q29,1.249,29.629.975t.764-.349l.143-.082.006-.008L30.57.522,30.6.508l.029-.014L30.655.48l.006-.008L30.67.467l.009-.005.006-.008.029-.008.029-.005L30.735.48l-.009.041-.014.041L30.7.6l-.014.027L30.67.659,30.655.7a.928.928,0,0,0-.029.11,4.526,4.526,0,0,1-.271.549,6.837,6.837,0,0,1-.642.975,4.859,4.859,0,0,1-.69.747q-.308.255-.408.357a1.215,1.215,0,0,1-.242.192l-.143.091-.029.014-.029.014-.006.008-.009.005-.009.005-.006.008-.029.014-.029.014-.006.008-.009.005-.009.005-.006.008-.006.008-.009.005-.009.005-.006.008h.143l.8-.165a14.73,14.73,0,0,0,1.526-.4l.77-.247.086-.027.043-.014.029-.014.029-.014.029-.014.029-.014.057-.008.057-.005v.055L31.611,3l-.014.008-.006.008-.009.005-.009.005-.006.008-.006.008-.009.005-.009.005-.006.008-.006.008-.009.005-.014.027L31.5,3.13l-.009.005-.362.467a3.893,3.893,0,0,1-.385.467q-.028.008-.08.082a8,8,0,0,1-.6.612,14.176,14.176,0,0,1-1.089.953,1.284,1.284,0,0,0-.542,1.032q-.009.609-.066,1.378t-.214,1.661a19.179,19.179,0,0,1-.485,2.018,17.891,17.891,0,0,1-.8,2.2,16.859,16.859,0,0,1-.984,1.922q-.513.851-.941,1.441t-.87,1.112q-.442.522-1.118,1.175t-.741.714q-.066.06-.559.45t-1.055.785q-.562.39-1.032.651t-1.135.6A13.761,13.761,0,0,1,17,23.473q-.77.288-1.625.535a15.329,15.329,0,0,1-1.654.384q-.8.137-1.811.233l-1.012.1v.014H9.04v-.014L8.8,24.708q-.242-.014-.4-.027T7.215,24.53q-1.027-.137-1.611-.275t-1.74-.522a17.3,17.3,0,0,1-1.976-.777q-.818-.39-1.027-.494T.4,22.21l-.257-.151-.006-.008-.009-.005L.12,22.04l-.006-.008-.029-.014L.057,22,.051,22l-.009-.005-.009-.005-.006-.008-.006-.008-.009-.005H0v-.055l.029.005.029.008.128.014q.128.014.7.041t1.212,0q.642-.027,1.312-.124a15.277,15.277,0,0,0,1.583-.329,12,12,0,0,0,1.677-.555q.761-.324,1.084-.483a10.63,10.63,0,0,0,.975-.582l.656-.426.006-.008.009-.005.009-.005.006-.008.006-.008.009-.005.009-.005.006-.008.029-.008L9.5,19.41l.006-.027.009-.027.009-.005.006-.008L9.3,19.328,8.854,19.3a4.436,4.436,0,0,1-.67-.124,6.6,6.6,0,0,1-.984-.329,7.69,7.69,0,0,1-1.027-.522,5.049,5.049,0,0,1-.721-.5q-.22-.2-.57-.56a5.587,5.587,0,0,1-.6-.749,6.654,6.654,0,0,1-.49-.887l-.237-.5-.014-.041-.014-.041-.009-.027-.006-.027L3.55,15,3.593,15l.314.041a7.238,7.238,0,0,0,.984.027,7.908,7.908,0,0,0,.927-.055q.257-.041.314-.055l.057-.014.071-.014.071-.014.006-.008.009-.005.009-.005.006-.008L6.3,14.88l-.057-.014-.057-.014-.057-.014-.057-.014q-.057-.014-.2-.055t-.77-.3a5.967,5.967,0,0,1-1-.508,6.858,6.858,0,0,1-.707-.541,7.893,7.893,0,0,1-.733-.763,5.468,5.468,0,0,1-.713-1.084,6.446,6.446,0,0,1-.471-1.181,6.158,6.158,0,0,1-.205-1.139l-.051-.577.029.005.029.008.029.014.029.014.029.014.029.014.442.192a5.734,5.734,0,0,0,1.1.329q.656.137.784.151l.128.014h.257L4.1,9.422l-.009-.005-.009-.005L4.078,9.4l-.006-.008-.009-.005-.009-.005-.006-.008-.029-.014-.029-.014L3.987,9.34l-.009-.005L3.97,9.329l-.006-.008-.029-.014-.029-.014L3.9,9.285l-.245-.176a3.685,3.685,0,0,1-.49-.447q-.257-.275-.513-.577A4.448,4.448,0,0,1,2.2,7.44a7.69,7.69,0,0,1-.422-.873A6.026,6.026,0,0,1,1.44,5.5a5.833,5.833,0,0,1-.128-1.057,6.409,6.409,0,0,1,.029-.892,5.639,5.639,0,0,1,.171-.837,6.368,6.368,0,0,1,.371-.988l.242-.522.014-.041.014-.041.009-.005.006-.008L2.173,1.1,2.182,1.1,2.19,1.1l.006.008L2.2,1.12l.009.005.009.005.006.008.006.008.009.005.014.027.014.027.009.005.006.008.385.412q.385.412.913.92a5.293,5.293,0,0,0,.585.527.413.413,0,0,1,.143.126,5.753,5.753,0,0,0,.57.486q.485.384,1.269.892t1.74,1a17.3,17.3,0,0,0,2.053.892q1.1.4,1.54.522t1.511.316q1.069.192,1.611.247t.741.063l.2.005-.006-.041-.009-.041-.057-.343a6.214,6.214,0,0,1-.057-.961,6.072,6.072,0,0,1,.1-1.139,6.551,6.551,0,0,1,.3-1.057A5.541,5.541,0,0,1,16.2,3.19a8.435,8.435,0,0,1,.508-.733A6.189,6.189,0,0,1,18.664.824,7.557,7.557,0,0,1,19.848.3,5.687,5.687,0,0,1,20.76.069a3.282,3.282,0,0,0,.371-.063Z" fill="#fff"/>
</svg>
