<svg xmlns="http://www.w3.org/2000/svg" width="25.08" height="25.193" viewBox="0 0 25.08 25.193">
  <path id="whatsapp-glyph-black" d="M21.426,3.661A12.489,12.489,0,0,0,1.772,18.724L0,25.193l6.62-1.736a12.482,12.482,0,0,0,5.967,1.519h.005A12.488,12.488,0,0,0,21.426,3.661M12.592,22.868h0a10.365,10.365,0,0,1-5.283-1.446L6.927,21.2,3,22.227,4.047,18.4,3.8,18.005a10.38,10.38,0,1,1,8.792,4.862M18.286,15.1c-.312-.156-1.846-.911-2.132-1.015s-.494-.156-.7.156-.806,1.015-.988,1.223-.364.234-.676.078a8.523,8.523,0,0,1-2.509-1.548A9.4,9.4,0,0,1,9.542,11.83c-.182-.312-.019-.481.137-.637.14-.14.312-.364.468-.546a2.128,2.128,0,0,0,.312-.52.574.574,0,0,0-.026-.546c-.078-.156-.7-1.691-.962-2.316-.253-.608-.511-.526-.7-.535s-.39-.011-.6-.011a1.147,1.147,0,0,0-.832.39,3.5,3.5,0,0,0-1.092,2.6,6.066,6.066,0,0,0,1.274,3.227,13.907,13.907,0,0,0,5.33,4.71,17.971,17.971,0,0,0,1.779.657,4.28,4.28,0,0,0,1.965.124A3.213,3.213,0,0,0,18.7,16.944a2.607,2.607,0,0,0,.182-1.483c-.078-.13-.286-.208-.6-.364" fill="#fff" fill-rule="evenodd"/>
</svg>
