<svg xmlns="http://www.w3.org/2000/svg" width="41.854" height="28.952" viewBox="0 0 41.854 28.952">
  <path id="Trazado_5" data-name="Trazado 5" d="M272.777,588.539l-8.587-.157a44.816,44.816,0,0,1-8.293-.512c-4.146-.847-4.44-5-4.748-8.484a59.516,59.516,0,0,1,.54-14.742,5.04,5.04,0,0,1,4.973-4.528,274.812,274.812,0,0,1,27.851-.266,20.089,20.089,0,0,1,2.924.348c4.755.833,4.871,5.54,5.179,9.5a53.864,53.864,0,0,1-.41,12c-.471,3.292-1.373,6.052-5.179,6.319-4.768.348-9.427.629-14.209.54C272.818,588.539,272.79,588.539,272.777,588.539Zm-5.048-8.334c3.593-2.063,7.118-4.092,10.691-6.141-3.6-2.063-7.118-4.092-10.691-6.141Z" transform="translate(-250.923 -559.625)" fill="#fff"/>
</svg>
